<svg width="29" height="25" viewBox="0 0 29 25" version="1.1" xmlns="http://www.w3.org/2000/svg" xmlns:xlink="http://www.w3.org/1999/xlink">
<title>icon-twitter-small</title>
<desc>Created using Figma</desc>
<g id="Canvas" transform="translate(-3592 -13149)">
<g id="icon-twitter-small">
<use xlink:href="#path0_fill" transform="translate(3592.19 13149.7)" fill="#FFFFFF"/>
</g>
</g>
<defs>
<path id="path0_fill" d="M 28.7703 2.77009C 27.702 3.26407 26.5601 3.57992 25.3898 3.70512C 26.6523 2.96566 27.5994 1.78827 28.051 0.396543C 26.9051 1.1054 25.6365 1.59332 24.3109 1.83506C 23.4109 0.89779 22.2297 0.279752 20.9466 0.0747624C 19.6634 -0.130227 18.3485 0.0890266 17.2013 0.69924C 16.0541 1.30945 15.1373 2.2773 14.5901 3.45586C 14.0429 4.63443 13.8952 5.95934 14.1694 7.22948C 11.8256 7.13053 9.52969 6.53424 7.43399 5.48019C 5.33829 4.42614 3.49073 2.93844 2.01392 1.1158C 1.23678 2.40714 0.997318 3.95184 1.34701 5.41786C 1.6967 6.88388 2.60763 8.15418 3.88399 8.9557C 2.95872 8.94907 2.04767 8.72747 1.22274 8.30837C 1.23937 9.65404 1.7102 10.9546 2.55884 11.9991C 3.40748 13.0436 4.58413 13.7707 5.8979 14.0624C 5.033 14.3103 4.12324 14.3595 3.23665 14.2063C 3.62289 15.3782 4.3628 16.4017 5.35458 17.1359C 6.34636 17.87 7.54128 18.2788 8.77493 18.306C 7.57913 19.3289 6.17406 20.0778 4.65822 20.5003C 3.14238 20.9227 1.55248 21.0085 4.0885e-15 20.7515C 2.57686 22.5113 5.59889 23.5064 8.71718 23.6219C 11.8355 23.7374 14.9228 22.9686 17.6228 21.4043C 20.3228 19.8399 22.5253 17.5438 23.976 14.7811C 25.4267 12.0184 26.0664 8.90175 25.8213 5.79097C 26.9936 4.98803 27.9958 3.96142 28.7703 2.77009Z"/>
</defs>
</svg>
