<svg width="32" height="27" viewBox="0 0 32 27" version="1.1" xmlns="http://www.w3.org/2000/svg" xmlns:xlink="http://www.w3.org/1999/xlink">
<title>icon-reddit-small</title>
<desc>Created using Figma</desc>
<g id="Canvas" transform="translate(-3530 -13148)">
<g id="icon-reddit-small">
<g id="Vector">
<use xlink:href="#path0_fill" transform="translate(3532.46 13155.8)" fill="#FFFFFF"/>
</g>
<g id="Vector">
<use xlink:href="#path1_fill" transform="translate(3540.75 13168.5)" fill="#242424"/>
</g>
<g id="Vector">
<use xlink:href="#path2_fill" transform="translate(3548.41 13161.6)" fill="#242424"/>
</g>
<g id="Vector">
<use xlink:href="#path2_fill" transform="translate(3539.36 13161.6)" fill="#242424"/>
</g>
<g id="Group">
<g id="Vector (Stroke)">
<use xlink:href="#path3_fill" transform="translate(3553.21 13148.3)" fill="#FFFFFF"/>
</g>
<g id="Vector (Stroke)">
<use xlink:href="#path4_fill" transform="translate(3530.72 13148.8)" fill="#FFFFFF"/>
</g>
</g>
</g>
</g>
<defs>
<path id="path0_fill" d="M 13.5741 18.8656C 21.0708 18.8656 27.1481 14.6424 27.1481 9.43282C 27.1481 4.22322 21.0708 0 13.5741 0C 6.07731 0 0 4.22322 0 9.43282C 0 14.6424 6.07731 18.8656 13.5741 18.8656Z"/>
<path id="path1_fill" d="M 0.920275 0C 3.60441 2.224 6.97875 2.224 9.66289 0L 10.5832 0.843585C 7.3622 3.52772 3.22096 3.52772 0 0.843585L 0.920275 0Z"/>
<path id="path2_fill" d="M 2.14731 4.29462C 3.33323 4.29462 4.29462 3.33323 4.29462 2.14731C 4.29462 0.961383 3.33323 0 2.14731 0C 0.961383 0 0 0.961383 0 2.14731C 0 3.33323 0.961383 4.29462 2.14731 4.29462Z"/>
<path id="path3_fill" fill-rule="evenodd" d="M 3.10593 1.91724C 2.44943 1.91724 1.91724 2.44943 1.91724 3.10593C 1.91724 3.76242 2.44943 4.29462 3.10593 4.29462C 3.76242 4.29462 4.29462 3.76242 4.29462 3.10593C 4.29462 2.44943 3.76242 1.91724 3.10593 1.91724ZM 0 3.10593C 0 1.39057 1.39057 0 3.10593 0C 4.82128 0 6.21185 1.39057 6.21185 3.10593C 6.21185 4.82128 4.82128 6.21185 3.10593 6.21185C 1.39057 6.21185 0 4.82128 0 3.10593Z"/>
<path id="path4_fill" fill-rule="evenodd" d="M 16.7161 0L 23.6117 1.37912L 23.2808 3.03352L 17.906 1.95857L 16.2809 7.57885L 14.6601 7.11019L 16.7161 0ZM 2.17933 13.5012C 1.91501 13.2511 1.77773 12.9685 1.72056 12.6941C 1.627 12.245 1.73432 11.7447 2.00403 11.3402C 2.27121 10.9394 2.66126 10.6835 3.09315 10.6374C 3.38753 10.606 3.77379 10.6649 4.22996 10.9379L 2.17933 13.5012ZM 2.9142 8.95976C 3.93247 8.85115 5.00371 9.24918 5.99978 10.1788L 6.5712 10.7122L 2.59319 15.6847L 1.98609 15.3879C 0.900722 14.8573 0.268355 13.9958 0.068854 13.0382C -0.125166 12.1069 0.103029 11.1501 0.600215 10.4043C 1.09993 9.65473 1.90815 9.06707 2.9142 8.95976ZM 30.5654 13.0382C 30.3659 13.9958 29.7336 14.8573 28.6482 15.3879L 28.0411 15.6847L 24.0631 10.7122L 24.6345 10.1788C 25.6306 9.24918 26.7018 8.85115 27.7201 8.95976C 28.7261 9.06707 29.5343 9.65473 30.0341 10.4043C 30.5312 11.1501 30.7594 12.1069 30.5654 13.0382ZM 26.4043 10.9379L 28.455 13.5012C 28.7193 13.2511 28.8566 12.9685 28.9137 12.6941C 29.0073 12.245 28.9 11.7447 28.6303 11.3402C 28.3631 10.9394 27.973 10.6835 27.5411 10.6374C 27.2467 10.606 26.8605 10.6649 26.4043 10.9379Z"/>
</defs>
</svg>
