<svg width="131" height="155" viewBox="0 0 131 155" version="1.1" xmlns="http://www.w3.org/2000/svg" xmlns:xlink="http://www.w3.org/1999/xlink">
<title>lbrycommunity</title>
<desc>Created using Figma</desc>
<g id="Canvas" transform="translate(525 -9077)">
<g id="lbrycommunity">
<g id="Vector">
<use xlink:href="#path0_fill" transform="translate(-525 9157)" fill="#FFFFFF"/>
</g>
<g id="Vector">
<use xlink:href="#path1_fill" transform="translate(-494 9157)" fill="#FFFFFF"/>
</g>
<g id="Vector">
<use xlink:href="#path2_fill" transform="translate(-455.518 9156.95)" fill="#FFFFFF"/>
</g>
<g id="Vector">
<use xlink:href="#path3_fill" transform="translate(-424 9159.5)" fill="#FFFFFF"/>
</g>
<g id="Vector">
<use xlink:href="#path4_fill" transform="translate(-411.535 9176.1)" fill="#FFFFFF"/>
</g>
<g id="COMMUNITY">
<use xlink:href="#path5_fill" transform="translate(-515.052 9220.02)" fill="#FFFFFF"/>
<use xlink:href="#path6_fill" transform="translate(-515.052 9220.02)" fill="#FFFFFF"/>
<use xlink:href="#path7_fill" transform="translate(-515.052 9220.02)" fill="#FFFFFF"/>
<use xlink:href="#path8_fill" transform="translate(-515.052 9220.02)" fill="#FFFFFF"/>
<use xlink:href="#path9_fill" transform="translate(-515.052 9220.02)" fill="#FFFFFF"/>
<use xlink:href="#path10_fill" transform="translate(-515.052 9220.02)" fill="#FFFFFF"/>
<use xlink:href="#path11_fill" transform="translate(-515.052 9220.02)" fill="#FFFFFF"/>
<use xlink:href="#path12_fill" transform="translate(-515.052 9220.02)" fill="#FFFFFF"/>
<use xlink:href="#path13_fill" transform="translate(-515.052 9220.02)" fill="#FFFFFF"/>
</g>
<g id="Vector">
<use xlink:href="#path14_fill" transform="translate(-502.702 9077)" fill="#FFFFFF"/>
</g>
<g id="Vector">
<use xlink:href="#path15_fill" transform="translate(-512 9097)" fill="#FFFFFF"/>
</g>
</g>
</g>
<defs>
<path id="path0_fill" d="M 2.54647e-06 47L 1.68971 1.48145e-06L 7.64692 0.221479L 6.1837 40.8895L 24.9613 40.762L 25 46.8301L 2.54647e-06 47Z"/>
<path id="path1_fill" d="M 10.8932 46.9904C 8.28364 46.9976 6.96557 46.8792 5.37794 46.4941C 5.37794 46.4941 3.88555 45.8818 2.91236 45.2644C 1.93918 44.6469 1.08313 43.8899 1.08313 43.8899L 0.32159 24.4115C 0.0697423 17.9296 -0.194093 11.2296 0.204665 4.57865L 0.336586 2.31804L 1.9526 1.62268C 4.94757 0.325444 8.27295 -0.209719 11.5755 0.0740414C 14.878 0.357802 18.0344 1.44989 20.7092 3.23429C 23.6535 5.20585 25.6263 7.81551 26.2589 10.597C 27.1793 14.6273 25.2935 18.4068 22.3283 21.0956C 25.0765 22.2914 27.4483 24.0988 29.2241 26.3504C 32.5941 30.7271 32.9269 36.5027 30.0516 40.7212C 27.2723 44.7979 21.7196 47.1922 15.5554 46.9686C 14.3831 46.9249 14.7591 46.9785 13.8087 46.9976C 13.293 47.0058 11.4149 46.9904 10.8932 46.9904ZM 6.96557 40.8766C 8.91439 41.5965 10.6934 41.6165 12.8041 41.562C 13.8055 41.5374 15.3381 41.6119 16.8223 41.562C 21.307 41.411 23.3417 40.214 24.9577 37.8416C 26.5737 35.4692 26.2979 32.0469 24.3161 29.4727C 22.5172 27.1193 19.402 25.4314 15.7413 24.7933C 13.9814 25.4233 12.1787 25.9498 10.3445 26.3694C 9.05534 26.6783 7.73753 26.8782 6.40791 26.9666L 6.96557 40.8766ZM 9.2882 18.5268C 11.324 18.5268 12.3983 18.7886 14.9977 19.1458L 15.2795 19.0259C 18.3167 17.7197 21.06 14.6192 20.3765 11.685C 20.0437 10.2343 18.8983 8.78902 17.1444 7.61644C 15.5776 6.57464 13.7629 5.88355 11.8474 5.59927C 9.93189 5.31498 7.9697 5.44553 6.12009 5.98029C 5.91621 10.1661 5.97018 14.4146 6.0991 18.6196C 6.73213 18.5543 7.36887 18.5233 8.00594 18.5268L 9.2882 18.5268Z"/>
<path id="path2_fill" d="M 1.01758 47.0541C 0.517578 44.0541 0.517578 43.5541 0.419842 41.6706C 0.419842 39.2824 0.339253 36.5129 0.24673 33.3042C 0.0348241 26.0054 -0.227806 16.9466 0.35419 7.32963C 0.431383 6.05408 0.634847 5.38022 1.01758 4.55408C 1.40031 3.72794 1.74621 3.15545 2.50906 2.67824C 7.19487 -0.194953 12.1642 -0.75007 17.7007 0.982384C 23.2908 2.73009 27.3051 8.51612 27.2514 14.7383C 27.2006 20.1248 24.1832 25.3831 19.4914 28.3783C 20.0883 28.8542 20.6226 29.3269 21.1031 29.7814C 23.4421 32.0138 25.2742 34.7428 26.4705 37.7764C 27.6668 40.8101 28.1884 43.788 28.0176 47.0541L 22.0176 47.0541C 22.1247 44.688 21.7717 42.262 20.9043 40.0655C 20.0369 37.8689 18.7161 35.8894 17.0321 34.262C 15.8306 33.1523 14.5419 32.1454 13.179 31.2515C 10.9614 32.0171 8.40363 32.6393 6.18011 32.5173L 6.19801 33.1273C 6.29352 36.3848 6.37411 39.197 6.37411 41.6676C 6.36405 43.1026 6.50716 44.5344 6.80091 45.9377C 6.85761 46.2214 6.98176 46.807 7.01758 47.0541L 1.01758 47.0541ZM 6.201 21.9274C 8.15293 21.9274 10.5406 22.7113 13.4267 24.2943L 13.8057 24.5047C 14.5071 24.1997 15.1906 23.8611 15.8233 23.5043C 19.0527 21.6742 21.2434 18.1392 21.2762 14.6804C 21.309 11.2216 18.9691 7.7597 15.9517 6.81722C 12.3702 5.69783 9.29007 5.90219 6.32338 7.48519C 6.02492 12.4873 5.94134 17.3705 5.97417 21.9304L 6.201 21.9274Z"/>
<path id="path3_fill" d="M 15 23.5L 12.7698 19.6338C 9.49865 13.1963 5.08313 5.33047 0 9.53674e-07L 6.5 0C 12.5 6.5 12.7698 9 15 14.5C 18.3308 10.4523 22.454 7.11262 24 0L 29.5 0C 27.9719 7.0268 24.9201 13.6729 17.578 20.4256L 15 23.5Z"/>
<path id="path4_fill" d="M 0.220857 22.7589C 0.0862895 24.6517 -0.0183832 26.0055 0.034668 27.9034L 6.03467 27.9034L 5.7334 0L 0 1.85903C 0.510366 3.84154 0.220857 3.8163 0.29846 6.94881C 0.29846 9.42282 0.268621 10.9481 0.244739 13.644C 0.220857 16.3399 0.220857 19.5146 0.220857 22.7589Z"/>
<path id="path5_fill" d="M 5.59074 0.0331879C 7.02171 0.0331879 8.20308 0.387193 9.13487 1.0952C 10.0667 1.79215 10.71 2.74907 11.065 3.96596L 9.46766 3.96596C 9.16815 3.19158 8.68562 2.5776 8.02005 2.12403C 7.35449 1.6594 6.53917 1.42708 5.5741 1.42708C 4.8087 1.42708 4.12095 1.61515 3.51085 1.99128C 2.91185 2.35635 2.43486 2.88735 2.07989 3.5843C 1.73601 4.27018 1.56408 5.07776 1.56408 6.00702C 1.56408 6.92522 1.73601 7.72726 2.07989 8.41315C 2.43486 9.09903 2.91185 9.63004 3.51085 10.0062C 4.12095 10.3712 4.8087 10.5538 5.5741 10.5538C 6.53917 10.5538 7.35449 10.327 8.02005 9.87342C 8.68562 9.40879 9.16815 8.78928 9.46766 8.01489L 11.065 8.01489C 10.71 9.23178 10.0667 10.1942 9.13487 10.9022C 8.20308 11.5992 7.02171 11.9477 5.59074 11.9477C 4.49256 11.9477 3.52195 11.6988 2.6789 11.2009C 1.83585 10.6921 1.17583 9.98958 0.698843 9.0935C 0.232948 8.18636 0 7.15754 0 6.00702C 0 4.84544 0.232948 3.81108 0.698843 2.90395C 1.17583 1.99681 1.83585 1.29433 2.6789 0.796511C 3.52195 0.287629 4.49256 0.0331879 5.59074 0.0331879Z"/>
<path id="path6_fill" d="M 18.4643 0C 19.5514 0 20.5276 0.254441 21.3928 0.763323C 22.2692 1.27221 22.9569 1.98575 23.4561 2.90395C 23.9553 3.81108 24.2048 4.83991 24.2048 5.99043C 24.2048 7.14094 23.9553 8.1753 23.4561 9.0935C 22.9569 10.0006 22.2692 10.7086 21.3928 11.2175C 20.5276 11.7264 19.5514 11.9809 18.4643 11.9809C 17.3773 11.9809 16.39 11.7264 15.5026 11.2175C 14.6263 10.7086 13.9385 10.0006 13.4393 9.0935C 12.9402 8.1753 12.6906 7.14094 12.6906 5.99043C 12.6906 4.83991 12.9402 3.81108 13.4393 2.90395C 13.9385 1.98575 14.6263 1.27221 15.5026 0.763323C 16.39 0.254441 17.3773 0 18.4643 0ZM 18.4643 1.41049C 17.6546 1.41049 16.928 1.59855 16.2846 1.97468C 15.6523 2.33975 15.1532 2.87076 14.7871 3.56771C 14.4321 4.25359 14.2547 5.06116 14.2547 5.99043C 14.2547 6.90863 14.4321 7.7162 14.7871 8.41315C 15.1532 9.1101 15.6523 9.64664 16.2846 10.0228C 16.928 10.3878 17.6546 10.5704 18.4643 10.5704C 19.263 10.5704 19.9785 10.3823 20.6108 10.0062C 21.2542 9.63004 21.7533 9.09903 22.1083 8.41315C 22.4744 7.7162 22.6574 6.90863 22.6574 5.99043C 22.6574 5.06116 22.4744 4.25359 22.1083 3.56771C 21.7533 2.87076 21.2542 2.33975 20.6108 1.97468C 19.9785 1.59855 19.263 1.41049 18.4643 1.41049Z"/>
<path id="path7_fill" d="M 37.9989 0.348474L 37.9989 11.8481L 36.4848 11.8481L 36.4848 2.67163L 32.8075 11.8481L 31.4598 11.8481L 27.7659 2.70482L 27.7659 11.8481L 26.2517 11.8481L 26.2517 0.348474L 28.0654 0.348474L 32.1586 10.0062L 36.1853 0.348474L 37.9989 0.348474Z"/>
<path id="path8_fill" d="M 52.1682 0.348474L 52.1682 11.8481L 50.654 11.8481L 50.654 2.67163L 46.9768 11.8481L 45.629 11.8481L 41.9351 2.70482L 41.9351 11.8481L 40.421 11.8481L 40.421 0.348474L 42.2346 0.348474L 46.3278 10.0062L 50.3545 0.348474L 52.1682 0.348474Z"/>
<path id="path9_fill" d="M 56.0212 0.149346L 56.0212 7.1686C 56.0212 8.31912 56.2763 9.17094 56.7866 9.72407C 57.2968 10.2661 58.0012 10.5372 58.8997 10.5372C 59.7872 10.5372 60.4805 10.2606 60.9796 9.70748C 61.4788 9.15435 61.7284 8.30805 61.7284 7.1686L 61.7284 0.149346L 63.2425 0.149346L 63.2425 7.1686C 63.2425 8.76162 62.8432 9.96192 62.0445 10.7695C 61.2569 11.566 60.1976 11.9643 58.8665 11.9643C 57.5464 11.9643 56.4871 11.566 55.6884 10.7695C 54.9008 9.96192 54.507 8.76162 54.507 7.1686L 54.507 0.149346L 56.0212 0.149346Z"/>
<path id="path10_fill" d="M 74.7091 11.8481L 73.1949 11.8481L 67.105 2.60526L 67.105 11.8481L 65.5909 11.8481L 65.5909 0.149346L 67.105 0.149346L 73.1949 9.40879L 73.1949 0.149346L 74.7091 0.149346L 74.7091 11.8481Z"/>
<path id="path11_fill" d="M 78.6582 0.149346L 78.6582 11.8481L 77.144 11.8481L 77.144 0.149346L 78.6582 0.149346Z"/>
<path id="path12_fill" d="M 88.2806 0.149346L 88.2806 1.3773L 84.9695 1.3773L 84.9695 11.8481L 83.4553 11.8481L 83.4553 1.3773L 80.1441 1.3773L 80.1441 0.149346L 88.2806 0.149346Z"/>
<path id="path13_fill" d="M 98.122 0.149346L 94.2784 7.41751L 94.2784 11.8481L 92.7476 11.8481L 92.7476 7.41751L 88.8873 0.149346L 90.6511 0.149346L 93.5296 5.80789L 96.3916 0.149346L 98.122 0.149346Z"/>
<path id="path14_fill" d="M 80.5094 18.9782L 76.4355 16.8083L 34.3915 42.5252L 7.75995 29.0119L 7.69727 22.3476L 34.1169 35.718L 65.2701 16.6684L 30.5802 -3.63342e-07L 0 21.8386L 0 30.8484C 11.8339 36.7389 29.2132 45.2636 33.8751 47.243C 37.2597 45.1118 47.6461 38.7808 80.5094 18.9782Z"/>
<path id="path15_fill" d="M 97.3485 1.22929C 77.5607 13.1353 47.7177 31.1699 45.3569 32.7177C 45.0584 32.9856 43.4945 33.3695 43.5661 33.3666C 43.6378 33.3636 41.6053 32.932 40.5815 32.4736C 39.5578 32.0152 38.0834 31.3604 36.2091 30.4823C 33.0842 29.0179 28.7715 26.9403 23.3754 24.312C 14.2216 19.8473 5.01412 15.2486 4.92159 15.204L 3.28305 14.3914L 3.28305 2.32762L 0 4.6731L 0 19.1984C 0 19.1984 43.1095 40.6947 43.6915 40.1143C 44.1631 39.644 84.282 15.4451 99.387 6.33994L 99.387 -2.18005e-06L 97.3485 1.22929Z"/>
</defs>
</svg>
