<svg width="308" height="101" viewBox="0 0 308 101" version="1.1" xmlns="http://www.w3.org/2000/svg" xmlns:xlink="http://www.w3.org/1999/xlink">
<title>logo</title>
<desc>Created using Figma</desc>
<g id="Canvas" transform="translate(553 472)">
<g id="logo">
<g id="COMMUNITY">
<use xlink:href="#path0_fill" transform="translate(-394.417 -394.083)" fill="#016049"/>
</g>
<g id="Group">
<g id="Group">
<g id="path3337 1">
<use xlink:href="#path1_fill" transform="translate(-394.06 -447.802)" fill="url(#paint1_linear)"/>
</g>
<g id="g4167 1">
<g id="g3341 1">
<g id="polygon3343 1">
<use xlink:href="#path2_fill" transform="translate(-553 -472)" fill="url(#paint2_linear)"/>
</g>
</g>
<g id="g3345 1">
<g id="polygon3347 1">
<use xlink:href="#path3_fill" transform="translate(-421.983 -418.51)" fill="url(#paint3_linear)"/>
</g>
</g>
</g>
</g>
</g>
</g>
</g>
<defs>
<linearGradient id="paint1_linear" x1="0" y1="0" x2="1" y2="0" gradientUnits="userSpaceOnUse" gradientTransform="matrix(-266.069 -0.885082 -0.889844 264.645 107.446 -110.64)">
<stop offset="0" stop-color="#006149"/>
<stop offset="1" stop-color="#2F4246"/>
</linearGradient>
<linearGradient id="paint2_linear" x1="0" y1="0" x2="1" y2="0" gradientUnits="userSpaceOnUse" gradientTransform="matrix(-266.069 -0.885082 -0.889845 264.645 266.511 -81.2567)">
<stop offset="0" stop-color="#006149"/>
<stop offset="1" stop-color="#2F4246"/>
</linearGradient>
<linearGradient id="paint3_linear" x1="0" y1="0" x2="1" y2="0" gradientUnits="userSpaceOnUse" gradientTransform="matrix(-266.069 -0.885052 -0.889814 264.645 135.32 -126.88)">
<stop offset="0" stop-color="#006149"/>
<stop offset="1" stop-color="#2F4246"/>
</linearGradient>
<path id="path0_fill" d="M 8.274 7.048C 9.912 7.048 11.368 7.482 12.642 8.35C 13.916 9.218 14.805 10.422 15.309 11.962L 11.025 11.962C 10.731 11.388 10.36 10.975 9.912 10.723C 9.464 10.471 8.918 10.345 8.274 10.345C 7.084 10.345 6.132 10.73 5.418 11.5C 4.718 12.27 4.368 13.299 4.368 14.587C 4.368 15.875 4.718 16.904 5.418 17.674C 6.132 18.444 7.084 18.829 8.274 18.829C 8.918 18.829 9.464 18.703 9.912 18.451C 10.36 18.199 10.731 17.786 11.025 17.212L 15.309 17.212C 14.805 18.752 13.916 19.956 12.642 20.824C 11.368 21.692 9.912 22.126 8.274 22.126C 6.888 22.126 5.614 21.804 4.452 21.16C 3.304 20.516 2.394 19.62 1.722 18.472C 1.05 17.324 0.714 16.029 0.714 14.587C 0.714 13.145 1.05 11.85 1.722 10.702C 2.394 9.554 3.304 8.658 4.452 8.014C 5.614 7.37 6.888 7.048 8.274 7.048ZM 24.3111 7.048C 25.6971 7.048 26.9641 7.37 28.1121 8.014C 29.2741 8.658 30.1841 9.554 30.8421 10.702C 31.5141 11.85 31.8501 13.145 31.8501 14.587C 31.8501 16.029 31.5141 17.331 30.8421 18.493C 30.1701 19.641 29.2601 20.537 28.1121 21.181C 26.9641 21.825 25.6971 22.147 24.3111 22.147C 22.9251 22.147 21.6511 21.825 20.4891 21.181C 19.3411 20.537 18.4311 19.641 17.7591 18.493C 17.0871 17.331 16.7511 16.029 16.7511 14.587C 16.7511 13.145 17.0871 11.85 17.7591 10.702C 18.4311 9.554 19.3411 8.658 20.4891 8.014C 21.6511 7.37 22.9251 7.048 24.3111 7.048ZM 24.3111 10.345C 23.1211 10.345 22.1691 10.73 21.4551 11.5C 20.7551 12.27 20.4051 13.299 20.4051 14.587C 20.4051 15.875 20.7551 16.904 21.4551 17.674C 22.1691 18.444 23.1211 18.829 24.3111 18.829C 25.4871 18.829 26.4251 18.444 27.1251 17.674C 27.8391 16.904 28.1961 15.875 28.1961 14.587C 28.1961 13.299 27.8391 12.27 27.1251 11.5C 26.4251 10.73 25.4871 10.345 24.3111 10.345ZM 50.8569 7.258L 50.8569 22L 47.2659 22L 47.2659 13.684L 43.8429 22L 41.1759 22L 37.7529 13.684L 37.7529 22L 34.1619 22L 34.1619 7.258L 38.2779 7.258L 42.5199 17.422L 46.7409 7.258L 50.8569 7.258ZM 70.7085 7.258L 70.7085 22L 67.1175 22L 67.1175 13.684L 63.6945 22L 61.0275 22L 57.6045 13.684L 57.6045 22L 54.0135 22L 54.0135 7.258L 58.1295 7.258L 62.3715 17.422L 66.5925 7.258L 70.7085 7.258ZM 77.393 7.258L 77.393 16.057C 77.393 16.939 77.61 17.618 78.044 18.094C 78.478 18.57 79.115 18.808 79.955 18.808C 80.795 18.808 81.439 18.57 81.887 18.094C 82.335 17.618 82.559 16.939 82.559 16.057L 82.559 7.258L 86.15 7.258L 86.15 16.057C 86.15 17.359 85.856 18.472 85.268 19.396C 84.68 20.306 83.91 20.992 82.958 21.454C 82.006 21.916 80.984 22.147 79.892 22.147C 78.8 22.147 77.785 21.916 76.847 21.454C 75.923 20.992 75.181 20.306 74.621 19.396C 74.075 18.472 73.802 17.359 73.802 16.057L 73.802 7.258L 77.393 7.258ZM 102.413 22L 98.8224 22L 92.8164 12.697L 92.8164 22L 89.2254 22L 89.2254 7.216L 92.8164 7.216L 98.8224 16.519L 98.8224 7.216L 102.413 7.216L 102.413 22ZM 109.161 7.258L 109.161 22L 105.57 22L 105.57 7.258L 109.161 7.258ZM 122.943 7.258L 122.943 9.988L 118.911 9.988L 118.911 22L 115.32 22L 115.32 9.988L 111.309 9.988L 111.309 7.258L 122.943 7.258ZM 137.631 7.258L 132.528 17.254L 132.528 22L 128.937 22L 128.937 17.254L 123.834 7.258L 127.908 7.258L 130.743 13.915L 133.557 7.258L 137.631 7.258Z"/>
<path id="path1_fill" d="M 23.8911 34.8956L 23.8911 43.1225L 7.50681e-06 43.1225L 7.50681e-06 -4.66665e-07L 8.27118 -4.66665e-07L 8.27118 34.9262L 23.8911 34.9262L 23.8911 34.8956ZM 57.5908 21.5613C 62.4183 23.5798 62.4183 30.2775 62.4183 30.2775C 62.4183 43.1225 47.7823 43.1225 47.7823 43.1225L 33.1155 43.1225L 33.1155 -4.66665e-07L 47.7823 -4.66665e-07C 47.7823 -4.66665e-07 62.4183 1.16666e-06 62.4183 12.7838C 62.3875 18.3806 59.7432 20.6438 57.5908 21.5613ZM 41.3252 17.4631L 47.7823 17.4631C 47.7823 17.4631 54.1471 17.4631 54.1471 12.845C 54.1471 8.19634 47.7823 8.19634 47.7823 8.19634L 41.3252 8.19634L 41.3252 17.4631ZM 54.1163 30.2775C 54.1163 25.6594 47.7515 25.6594 47.7515 25.6594L 41.2944 25.6594L 41.2944 34.9568L 47.7515 34.9568C 47.7823 34.9874 54.1163 34.9874 54.1163 30.2775ZM 86.7399 25.6289L 81.9739 25.6289L 81.9739 43.1531L 73.7027 43.1531L 73.7027 0.0305824L 88.3695 0.0305824C 88.3695 0.0305824 103.036 0.0305841 103.036 12.8144C 103.036 19.5122 98.8853 22.7234 95.0725 24.2832C 97.8706 30.2469 101.068 37.2505 103.836 43.1837L 94.8266 43.1837L 86.7399 25.6289ZM 81.9432 17.4631L 88.3388 17.4631C 88.3388 17.4631 94.7958 17.4631 94.7958 12.8144C 94.7958 8.19634 88.3388 8.19634 88.3388 8.19634L 81.9432 8.19634L 81.9432 17.4631ZM 148.143 0.0305824L 131.693 22.9069L 131.693 43.1837L 123.422 43.1837L 123.422 22.9069C 118.287 15.5975 112.23 7.34 107.064 0.0305824L 117.119 0.0305824L 127.665 14.4965L 138.058 0.0305824L 148.143 0.0305824Z"/>
<path id="path2_fill" d="M 136.92 31.2562L 136.92 38.168L 68.5678 79.9449L 17.0343 54.836L 17.1573 50.9519L 68.3526 76.0302L 133.477 36.2719L 133.477 33.4276L 72.0116 3.91467L 3.44377 46.0891L 3.44377 64.9591L 68.3526 96.8881L 136.121 55.57L 138.058 58.506L 68.5678 100.833L -3.66544e-09 67.1305L -3.66544e-09 44.193L 71.7964 -3.64582e-09L 136.92 31.2562Z"/>
<path id="path3_fill" d="M 5.01191 9.60317L 5.99584 3.42534L 1.8767e-06 2.41608L 0.399721 9.3333e-07L 8.82465 1.43742L 7.44099 10.0008L 5.01191 9.60317Z"/>
</defs>
</svg>
