<svg width="17" height="29" viewBox="0 0 17 29" version="1.1" xmlns="http://www.w3.org/2000/svg" xmlns:xlink="http://www.w3.org/1999/xlink">
<title>icon-tumblr-small</title>
<desc>Created using Figma</desc>
<g id="Canvas" transform="translate(-3659 -13147)">
<g id="icon-tumblr-small">
<use xlink:href="#path0_fill" transform="translate(3659.04 13147.9)" fill="#FFFFFF"/>
</g>
</g>
<defs>
<path id="path0_fill" d="M 16.0043 25.429C 15.055 26.4462 12.9529 27.1243 11.0542 27.1243L 10.8507 27.1243C 4.40872 27.1243 3.0525 22.4453 3.0525 19.6651L 3.0525 12.0703L 0.543508 12.0703C 0.399632 12.0703 0.261648 12.0131 0.159912 11.9114C 0.0581766 11.8097 0.00102251 11.6717 0.00102251 11.5278L 0.00102251 7.93385C -0.00830782 7.74025 0.0464227 7.54898 0.156745 7.38963C 0.267068 7.23028 0.426832 7.11172 0.611319 7.05231C 3.86623 5.89953 4.88339 3.05148 5.08682 0.881539C 5.08682 0.271243 5.42588 0 5.90055 0L 9.69795 0C 9.82977 0.0166043 9.95092 0.0810105 10.0384 0.181003C 10.1259 0.280996 10.1737 0.409622 10.1726 0.542485L 10.1726 6.64544L 14.5803 6.64544C 14.7242 6.64544 14.8622 6.7026 14.9639 6.80433C 15.0656 6.90607 15.1228 7.04405 15.1228 7.18793L 15.1228 11.46C 15.1228 11.6039 15.0656 11.7419 14.9639 11.8436C 14.8622 11.9453 14.7242 12.0025 14.5803 12.0025L 10.1726 12.0025L 10.1726 19.0548C 10.1726 20.8179 11.3254 21.3604 12.0713 21.3604C 12.7494 21.2925 13.4275 21.0891 13.7666 20.9535L 14.4447 20.8179C 14.6481 20.8857 14.7837 21.0213 14.8516 21.2925L 16.0043 24.6831C 16.14 24.9543 16.2078 25.2256 16.0043 25.429Z"/>
</defs>
</svg>
