<svg width="110" height="110" viewBox="0 0 110 110" version="1.1" xmlns="http://www.w3.org/2000/svg" xmlns:xlink="http://www.w3.org/1999/xlink">
<title>icon-twitter-big</title>
<desc>Created using Figma</desc>
<g id="Canvas" transform="translate(96 -16895)">
<g id="icon-twitter-big">
<g id="Rectangle 10.1">
<use xlink:href="#path0_fill" transform="translate(-96 16895)" fill="#2B2B2B"/>
</g>
<g id="Vector">
<use xlink:href="#path1_fill" transform="translate(-76.1637 16921.1)" fill="#FFFFFF"/>
</g>
</g>
</g>
<defs>
<path id="path0_fill" d="M 0 10C 0 4.47715 4.47715 0 10 0L 100 0C 105.523 0 110 4.47715 110 10L 110 100C 110 105.523 105.523 110 100 110L 10 110C 4.47715 110 0 105.523 0 100L 0 10Z"/>
<path id="path1_fill" d="M 70.3273 6.77133C 67.7159 7.97885 64.9246 8.75093 62.0639 9.05697C 65.1501 7.24939 67.4651 4.37132 68.5691 0.969327C 65.7679 2.70209 62.6669 3.89478 59.4266 4.48569C 57.2266 2.1946 54.3392 0.683838 51.2027 0.182752C 48.0662 -0.318333 44.8518 0.217621 42.0475 1.70925C 39.2433 3.20088 37.0023 5.56674 35.6647 8.44767C 34.3271 11.3286 33.966 14.5673 34.6362 17.6721C 28.907 17.4302 23.2948 15.9726 18.172 13.396C 13.0492 10.8195 8.5329 7.18284 4.92291 2.72751C 3.02324 5.88412 2.43789 9.66006 3.29269 13.2437C 4.1475 16.8273 6.37421 19.9324 9.49419 21.8917C 7.23243 21.8755 5.00541 21.3338 2.98891 20.3093C 3.02958 23.5988 4.1805 26.778 6.25495 29.3311C 8.32939 31.8843 11.2057 33.6616 14.4171 34.3748C 12.3029 34.9807 10.079 35.1009 7.91182 34.7264C 8.85596 37.5912 10.6646 40.093 13.089 41.8876C 15.5133 43.6823 18.4342 44.6816 21.4498 44.7481C 18.5268 47.2485 15.0921 49.0792 11.3868 50.1118C 7.68137 51.1445 3.79495 51.3541 9.99411e-15 50.7259C 6.29898 55.0276 13.6862 57.4601 21.3087 57.7424C 28.9312 58.0248 36.4781 56.1455 43.078 52.3215C 49.678 48.4976 55.0618 42.885 58.608 36.1317C 62.1541 29.3784 63.7179 21.7598 63.1188 14.1557C 65.9844 12.193 68.4342 9.68347 70.3273 6.77133Z"/>
</defs>
</svg>
