<svg id="Layer_1" data-name="Layer 1" xmlns="http://www.w3.org/2000/svg" viewBox="0 0 1366 371"><defs><style>.cls-1{fill:#fff;}</style></defs><title>changa_Artboard 1</title><path class="cls-1" d="M242.1,296.93l8.42,31.24h-9.19c-66.49,0-133-.56-199.47.3C18.15,328.78-.14,311.53,0,286,.46,205,.15,124,.18,42.91.19,16,15.82.16,42.54.15q122-.05,244,0c26.21,0,41.93,15.19,42,41.1q.18,160.52,0,321c0,2.19-.31,4.37-.65,8.82L243.67,296ZM193.44,87.76l-.21,2,31.79,14c-41.72-14.54-82.78-13.16-124.27.89l36.13-15.81c-4.31-2-8.26-2.93-11.44-1.78-12.51,4.5-25,9.21-37,14.86-3.92,1.85-7.34,6.36-9.34,10.46a245.19,245.19,0,0,0-23.1,80c-3,25.7,3.68,36.25,28.22,46a82.82,82.82,0,0,0,17.21,4.73c12.5,2,18.93-2.44,23.16-14.65L98.93,213.35l.95-1.82c43.31,21.69,86.95,22.62,130.93,1.13l.67,2.42-27.29,14.67c6.09,5.09,11.63,13.63,17.24,13.68,19.71.16,37.33-7.42,50.54-22.8a17.75,17.75,0,0,0,3.76-10.69c.12-28.29-7.78-54.88-16.34-81.61-6.57-20.51-19.74-31.83-39.21-37.6a138,138,0,0,0-18.29-4.07C199.19,86.24,196.26,87.35,193.44,87.76Z"/><path class="cls-1" d="M1182.71,190.75l22.09,27.86,22.41,28.32c-17.55,0-33.31.17-49.07-.23-1.85,0-3.92-3-5.39-5-10.35-14-20.39-28.18-31-42-2.33-3-6.47-4.69-9.77-7l-2.8,1.88q0,17.33,0,34.65c0,4,.6,8.12-.24,11.93-.5,2.24-3.24,5.58-5.09,5.67-11.62.52-23.27.26-35.6.26-.28-3.21-.67-5.64-.67-8.07,0-49.91.05-99.81-.13-149.72,0-5.73,1.43-8.29,7.57-8.17,22.8.43,45.66-.38,68.41,1,40.21,2.35,55.72,31.14,50.92,65.86C1211.29,170.29,1205.53,177.15,1182.71,190.75Zm-53.46-71.6c0,12.52-.19,23.87.21,35.2.06,1.61,2.91,4.42,4.51,4.45,8.51.15,17.17.44,25.52-.94,10.92-1.8,16.23-10,15.41-21.08a18.58,18.58,0,0,0-17.82-17.52C1148.32,118.72,1139.5,119.15,1129.25,119.15Z"/><path class="cls-1" d="M1064,163.79c0,8.56.21,17.13,0,25.68-.85,29.46-15.92,48.56-44.39,56.31-22.36,6.08-44.09,4.49-64.63-6.6-18.66-10.08-28.16-26-28.33-47.31-.14-17.12,0-34.24,0-51.36,0-31.12,14.56-50.12,44.57-58.51a89.06,89.06,0,0,1,50.57.7C1049.08,90.94,1063.27,110,1064,139,1064.15,147.23,1064,155.51,1064,163.79Zm-41.35-.24c0-8.56.07-17.11,0-25.67-.1-10.65-3.94-17.32-14.19-19.49a67.84,67.84,0,0,0-25.89-.39c-10.53,2-15.42,9.75-15.5,20.64q-.19,25.24,0,50.47c.1,12,6.55,19.15,19,21.44,16.07,3,31.49-2.2,35.39-12.15a24.37,24.37,0,0,0,1.18-8.35C1022.72,181.23,1022.63,172.39,1022.63,163.55Z"/><path class="cls-1" d="M1279.42,185.46c-12.94-11.68-25-22.48-36.9-33.44a7.88,7.88,0,0,1-2.4-5.1c-.16-21.63-.11-43.26-.11-66.19,4.52,0,8.4-.07,12.27,0,20.79.43,41.66-.09,62.35,1.57,32.18,2.57,51.08,23.91,51.28,55.93q.16,26.52,0,53c-.21,30.36-18.76,51.81-49.09,54.19-23.54,1.85-47.27,1.17-70.91,1.73-4.34.1-6.12-1.49-6-6,.22-10.25.07-20.51.07-31.82,3.34-.18,6.33-.48,9.33-.49,17.4,0,34.79.1,52.19-.07,17.22-.16,23.85-6.88,23.91-23.88.05-14.83.12-29.66,0-44.49-.14-14.18-6.83-20.91-20.9-21.41-24.27-.87-24.27-.87-24.28,23.67q0,19.68-.06,39.35A28.88,28.88,0,0,1,1279.42,185.46Z"/><path class="cls-1" d="M440.37,208.89c20.34,0,39.41,0,58.48,0a55.68,55.68,0,0,0,11-.78c10.79-2.24,15.72-8.1,15.85-19q.28-25.24,0-50.49c-.11-11.17-5.82-17.54-16.65-19.25-26.29-4.16-28.48-2.34-28.48,23.66v43c-13.68-12.32-25.91-23.2-37.9-34.35-1.42-1.32-2.07-4.09-2.09-6.19-.16-19.4,0-38.79-.15-58.19,0-4.64,1.53-6.7,6.46-6.57,22.79.6,45.66-.07,68.35,1.67,32,2.44,50.69,23.53,51,55.21q.25,27,0,53.91c-.29,30.15-18.25,51.29-48.4,53.92-23.8,2.08-47.85,1.41-71.79,1.54-1.9,0-5.38-3.27-5.48-5.16C440.09,231.28,440.37,220.75,440.37,208.89Z"/><path class="cls-1" d="M652.67,219.08,676,197.16c9.24,4.48,17.22,9.94,26,12.11a44.42,44.42,0,0,0,23.26-1c10.18-3.31,10.9-14.94,1.57-20.34-6-3.48-13.15-5.06-19.89-7.18-7.84-2.47-16.18-3.71-23.6-7-20.82-9.35-30.65-26.47-29.45-49.3,1-19.24,13.12-35,34-41.5C716.54,74,743,77.65,765,100c1.15,1.17,2.09,2.56,3.73,4.59l-23.26,17.86c-11.87-3.9-22-7.68-32.45-10.42-3.19-.84-8.11,0-10.49,2.1-3.75,3.27-7.86,8-8.33,12.55-.38,3.57,3.61,9.42,7.18,11.21,7.24,3.63,15.54,5.13,23.36,7.64s16,4.33,23.31,8c28,13.94,34.35,52,12.87,74.73C731.88,259,677.15,254.69,652.67,219.08Z"/><path class="cls-1" d="M912.06,116.08l-32.09,13c-9.25-11-20.53-15.34-34.39-11.73-10.57,2.75-15.75,9.31-15.82,20.29-.09,16.25.31,32.51-.15,48.74-.3,10.46,2.4,18.45,12.84,22.54,10.74,4.21,23.48,1.87,30.87-6,1.72-1.83,3.18-3.9,5.11-6.3l34,15.59c-9.4,23.44-39.71,40.49-65.44,36.3-10.24-1.66-20.75-4.45-29.94-9.09-17.84-9-27.56-24.23-27.74-44.7q-.25-28.22-.11-56.44c.15-29.85,14.41-48.3,43.42-56.47C867.1,72.14,898.2,85.15,912.06,116.08Z"/><path class="cls-1" d="M592.05,81.1h38.67c.22,3.12.61,6.1.61,9.08,0,48.77-.14,97.54.2,146.3.05,7.85-2.2,10.69-10.07,10.13-8.23-.59-16.56.18-24.78-.43-2-.15-5.48-3.35-5.49-5.16-.18-52.75,0-105.5.11-158.25C591.29,82.54,591.51,82.29,592.05,81.1Z"/><path class="cls-1" d="M148.45,176.77c0,11.61-7.05,19.56-17.6,19.75-10.7.19-18.91-8.44-18.8-19.75.11-11,8-19.33,18.39-19.32C141.06,157.48,148.41,165.37,148.45,176.77Z"/><path class="cls-1" d="M199.33,157.46c10.51.08,17.95,8.28,17.89,19.72s-7.51,19.44-18.19,19.36-17.91-8.14-17.87-19.7S188.72,157.38,199.33,157.46Z"/></svg>