<?xml version="1.0" encoding="utf-8"?>
<!-- Generator: Adobe Illustrator 15.0.0, SVG Export Plug-In . SVG Version: 6.00 Build 0)  -->
<!DOCTYPE svg PUBLIC "-//W3C//DTD SVG 1.1//EN" "http://www.w3.org/Graphics/SVG/1.1/DTD/svg11.dtd">
<svg version="1.1" id="Layer_1" xmlns="http://www.w3.org/2000/svg" xmlns:xlink="http://www.w3.org/1999/xlink" x="0px" y="0px"
	 width="1000px" height="1000px" viewBox="0 0 1000 1000" enable-background="new 0 0 1000 1000" xml:space="preserve">
<g>
	<g>
		<path fill-rule="evenodd" clip-rule="evenodd" fill="#FEFEFE" d="M484,434c-61.895-34.771-127.386-65.949-189-101
			c0-4.333,0-8.667,0-13c64.309,31.69,126.271,65.73,189,99c61.883-41.021,124.34-81.834,189-124c7.182-4.684,24.1-13.516,24-20
			c-0.116-7.566-19.048-14.465-28-19c-24.17-12.243-37.371-19.089-62-32c-8.716-4.568-22.701-15.031-31-15
			c-7.443,0.027-18.205,9.247-24,13c-22.414,14.515-43.37,29.935-65,43c-34.608-18.726-68.904-37.763-105-55
			c-24.491,13.071-46.809,29.876-70,45c-23.047,15.029-47.821,28.513-67,48c0,23.667,0,47.333,0,71
			c66.941,38.247,137.872,72.768,209,111c8.258,4.438,22.776,15.843,29,16c8.184,0.206,27.192-15.88,35-21
			c34.071-22.343,66.177-45.098,100-66c-6.225-3.552-16.095-1.009-12-9c3.835-7.484,21.688,2.882,31,2
			c-2.171,8.021-1.145,33.541-8,33c-6.638-0.524-5.388-5.324-3-14c-48.979,28.687-94.099,61.236-142,91
			c-83.105-45.561-167.768-89.566-252-134c0-29.333,0-58.667,0-88c21.023-18.2,47.197-33.96,73-51c11.017-7.275,23.649-16.245,37-25
			c10.642-6.979,27.748-21.626,39-22c9.763-0.324,18.69,7.113,28,12c26.251,13.781,51.924,26.625,77,40
			c13.797-5.778,27.396-17.221,42-27c13.172-8.82,30.755-22.421,43-26c10.953-3.202,31.139,9.723,41,15
			c23.709,12.688,41.861,21.837,69,36c14.464,7.548,36.543,12.605,31,34c-2.009,7.751-18.624,15.414-27,21
			C619.147,345.915,548.256,392.554,484,434z"/>
		<path fill-rule="evenodd" clip-rule="evenodd" fill="#FEFEFE" d="M437,657c30.172,3.273,36.959,45.085,12,61
			c-21.051,13.424-62.604,10.731-90,8c0-42.333,0-84.667,0-127c39.495-4.426,102.711-6.469,102,31
			C460.731,644.16,449.936,652.249,437,657z M428,632c-0.896-13.992-18.379-13.675-37-13c0,10,0,20,0,30
			C410.311,649.867,428.979,647.309,428,632z M431,685c-2.026-14.429-21.084-15.248-40-15c0,12,0,24,0,36
			C413.628,708.034,433.494,702.761,431,685z"/>
		<path fill-rule="evenodd" clip-rule="evenodd" fill="#FEFEFE" d="M580,665c19.302,11.031,20.6,40.066,29,62c-11,0-22,0-33,0
			c-11.149-19.851-4.943-57.057-42-51c-2.331,15.003-0.335,34.331-1,51c-10.667,0-21.333,0-32,0c0-42.667,0-85.333,0-128
			c43.495-4.758,112.395-7.802,103,42C601.777,652.783,591.402,660.151,580,665z M571,643c6.685-18.929-14.904-28.095-37-23
			c-2.328,9.672-0.337,23.663-1,35C550.475,655.031,566.986,654.366,571,643z"/>
		<path fill-rule="evenodd" clip-rule="evenodd" fill="#FEFEFE" d="M270,598c0,34.333,0,68.667,0,103
			c17.002,2.331,38.332,0.335,57,1c0,8.333,0,16.667,0,25c-29.667,0-59.333,0-89,0c0.667-42.667-1.333-87.999,1-129
			C249.333,598,259.667,598,270,598z"/>
		<path fill-rule="evenodd" clip-rule="evenodd" fill="#FEFEFE" d="M628,598c12.333,0,24.667,0,37,0
			c8.465,18.201,17.644,35.689,25,55c9.387-17.613,16.832-37.168,26-55c12,0,24,0,36,0c-14.798,26.202-31.494,50.506-47,76
			c0,17.667,0,35.333,0,53c-10.667,0-21.333,0-32,0c-2.165-19.554,2.974-35.439,0-51c-1.794-9.387-15.451-28.511-21-38
			C642.986,622.584,633.637,610.831,628,598z"/>
		<path fill-rule="evenodd" clip-rule="evenodd" fill="#FEFEFE" d="M281,771c-3.654,3.978-7.667-0.255-13,0
			c-29.19,1.395-27.434,46.316-1,48c5.588,0.355,7.358-2.427,14-1c-0.13,12.705-27.546,5.662-33,1
			c-20.209-17.277-6.345-59.818,26-54C275.441,765.26,283.577,765.807,281,771z"/>
		<path fill-rule="evenodd" clip-rule="evenodd" fill="#FEFEFE" d="M315,766c40.488-6.675,38.127,62.035,1,59
			C287.968,822.709,284.443,771.037,315,766z M317,819c26.839,2.523,27.162-53.811-2-47C295.104,776.646,296.576,817.079,317,819z"
			/>
		<path fill-rule="evenodd" clip-rule="evenodd" fill="#FEFEFE" d="M362,766c3,0,6,0,9,0c5.517,15.15,11.532,29.801,15,47
			c6.367-14.966,11.118-31.549,17-47c3,0,6,0,9,0c2.063,18.603,2.306,39.027,4,58c-1.667,0-3.333,0-5,0
			c-5.499-12.501-3.133-32.867-4-50c-7.842,15.491-10.149,36.518-20,50c-8.084-4.106-8.213-15.38-11-24
			c-2.761-8.54-6.543-17.411-8-26c-2.269,15.731-0.592,35.408-4,50c-2,0-4,0-6,0C359.474,804.808,360.86,785.526,362,766z"/>
		<path fill-rule="evenodd" clip-rule="evenodd" fill="#FEFEFE" d="M435,766c3,0,6,0,9,0c5.517,15.15,11.532,29.801,15,47
			c6.367-14.966,11.118-31.549,17-47c3,0,6,0,9,0c2.063,18.603,2.306,39.027,4,58c-1.667,0-3.333,0-5,0
			c-5.499-12.501-3.133-32.867-4-50c-7.842,15.491-10.149,36.518-20,50c-8.084-4.106-8.213-15.38-11-24
			c-2.761-8.54-6.543-17.411-8-26c-2.269,15.731-0.592,35.408-4,50c-2,0-4,0-6,0C432.474,804.808,433.86,785.526,435,766z"/>
		<path fill-rule="evenodd" clip-rule="evenodd" fill="#FEFEFE" d="M511,766c6.889,16.596-6.133,50.485,13,53
			c17.306,2.274,16-17.747,16-36c0-5.149-2.534-14.373,3-17c7.262,1.714,4,12.146,4,18c0,22.266-0.132,43.267-24,41
			c-22.502-2.137-16.302-32.169-17-59C507.667,766,509.333,766,511,766z"/>
		<path fill-rule="evenodd" clip-rule="evenodd" fill="#FEFEFE" d="M572,766c9.365,15.968,20.533,30.134,28,48
			c1.461-12.47-1.881-34.11,1-48c1.333,0,2.667,0,4,0c4.642,15.358,0.686,39.314,2,58c-6.903,2.299-10.299-3.881-13-8
			c-7.949-12.121-15.288-26.642-23-40c-0.925,11.934,1.519,34.473-1,48c-1.333,0-2.667,0-4,0c-4.642-15.358-0.686-39.314-2-58
			C566.667,766,569.333,766,572,766z"/>
		<path fill-rule="evenodd" clip-rule="evenodd" fill="#FEFEFE" d="M631,766c3.327,14.707,3.327,43.293,0,58c-0.667,0-1.333,0-2,0
			c-5.424-0.604-2.882-8.393-3-12c-0.402-12.293,0.301-29.075,0-42c0-1.333,0-2.667,0-4c0.667,0,1.333,0,2,0
			C629,766,630,766,631,766z"/>
		<path fill-rule="evenodd" clip-rule="evenodd" fill="#FEFEFE" d="M644,766c4.865,0,14.745,0,23,0c6.674,0,16.974-2.401,19,3
			c-0.36,6.307-11.838,1.496-17,3c-2.97,15.03,0.977,36.977-2,52c-1.333,0-2.667,0-4,0c-4.636-13.364-0.689-35.311-2-52
			c-5.667,0-11.333,0-17,0C644,770,644,768,644,766z"/>
		<path fill-rule="evenodd" clip-rule="evenodd" fill="#FEFEFE" d="M692,767c1.063-2.27,6.286-0.381,9-1
			c3.203,9.797,9.312,16.688,12,27c10.41-6.256,5.789-27.545,23-27c-7.518,18.148-23.205,28.129-19,58c-2.333,0-4.667,0-7,0
			C713.657,795.343,700.872,783.128,692,767z"/>
		<path fill-rule="evenodd" clip-rule="evenodd" fill="#FF0072" d="M698,362c27.723-4.536,28.942,32.742,6,36
			c-13.515,1.919-26.851-10.08-40-5c6.717-15.595-6.586-32.667,2-46C675.101,332.868,705.913,334.933,698,362z"/>
	</g>
</g>
</svg>
