<?xml version="1.0" standalone="no"?>
<!DOCTYPE svg PUBLIC "-//W3C//DTD SVG 20010904//EN"
 "http://www.w3.org/TR/2001/REC-SVG-20010904/DTD/svg10.dtd">
<svg version="1.0" xmlns="http://www.w3.org/2000/svg"
 width="512.000000pt" height="512.000000pt" viewBox="0 0 512.000000 512.000000"
 preserveAspectRatio="xMidYMid meet">
<metadata>
Created by potrace 1.11, written by Peter Selinger 2001-2013
</metadata>
<g transform="translate(0.000000,512.000000) scale(0.100000,-0.100000)"
fill="#000000" stroke="none">
<path d="M3665 4548 c-25 -9 -103 -64 -255 -178 -537 -404 -698 -520 -718
-520 -20 0 -61 27 -182 119 -14 10 -65 49 -115 85 -49 36 -95 70 -102 75 -6 6
-29 23 -51 38 -21 16 -75 55 -118 87 -291 217 -368 272 -397 283 -48 17 -118
15 -157 -5 -19 -9 -125 -88 -235 -174 -110 -86 -261 -205 -335 -263 -74 -58
-142 -111 -150 -118 -8 -6 -89 -70 -180 -141 -91 -71 -184 -145 -207 -163 -23
-19 -73 -57 -111 -86 -38 -29 -88 -68 -112 -87 -23 -19 -61 -50 -84 -68 -72
-57 -96 -84 -124 -141 l-27 -56 -1 -460 c-2 -495 1 -526 50 -604 24 -38 83
-88 143 -122 15 -9 141 -88 278 -174 323 -204 506 -319 577 -364 134 -83 647
-408 698 -441 31 -20 62 -39 70 -43 8 -4 41 -24 72 -45 48 -30 414 -262 482
-305 11 -7 64 -41 119 -76 117 -74 154 -91 201 -91 69 0 66 -2 436 290 113 89
221 174 240 190 19 15 166 130 325 255 160 125 302 239 317 253 15 14 29 24
31 21 2 -2 -3 -45 -11 -96 -17 -105 -8 -149 34 -159 51 -13 77 13 89 89 3 18
7 43 10 57 3 14 7 41 10 60 7 46 17 100 22 125 18 89 20 109 15 128 -11 48
-26 56 -197 102 -33 9 -82 22 -110 30 -59 16 -81 8 -100 -38 -9 -22 -10 -39
-2 -61 15 -48 23 -53 98 -73 38 -9 69 -21 69 -25 0 -4 -3 -8 -7 -8 -5 0 -20
-10 -35 -23 -14 -12 -50 -40 -78 -62 -28 -22 -102 -80 -163 -128 -62 -49 -128
-100 -147 -115 -31 -24 -131 -103 -290 -229 -30 -24 -107 -84 -170 -134 -136
-107 -122 -96 -237 -187 -141 -112 -153 -115 -230 -56 -17 13 -34 24 -37 24
-3 0 -32 17 -63 37 -32 21 -66 42 -76 48 -22 12 -417 262 -507 320 -36 23
-101 65 -145 92 -44 28 -158 99 -253 159 -94 60 -198 125 -230 145 -283 176
-548 345 -550 351 -2 4 -8 8 -12 8 -5 0 -92 52 -192 116 -101 64 -195 124
-210 133 -137 83 -171 107 -185 135 -15 27 -17 83 -18 451 0 231 4 437 9 458
9 38 16 45 151 152 133 104 845 663 909 713 45 35 104 80 131 102 28 21 101
79 164 128 63 50 124 92 137 95 38 7 96 -27 249 -146 14 -11 127 -94 285 -212
74 -54 203 -150 287 -212 172 -127 213 -145 285 -124 23 7 45 16 48 20 3 4 57
45 120 92 130 97 364 272 598 448 87 65 168 123 179 130 38 20 77 12 139 -26
33 -21 68 -43 79 -50 32 -19 133 -81 240 -148 55 -34 242 -149 415 -255 401
-245 387 -236 406 -265 19 -30 25 -90 12 -128 -6 -17 -49 -58 -112 -107 -55
-44 -108 -86 -116 -93 -8 -7 -44 -35 -80 -62 -36 -27 -67 -52 -70 -55 -3 -3
-21 -17 -42 -32 -20 -15 -42 -33 -50 -40 -7 -7 -40 -33 -73 -58 -33 -24 -66
-50 -75 -56 -62 -51 -111 -89 -201 -159 -56 -44 -150 -117 -208 -163 -58 -46
-122 -95 -141 -110 -19 -15 -60 -47 -91 -72 -32 -25 -81 -63 -109 -85 -106
-82 -291 -227 -370 -290 -20 -16 -69 -55 -109 -85 -40 -30 -109 -84 -154 -120
-176 -141 -259 -200 -280 -200 -20 0 -169 83 -277 154 -37 24 -422 264 -452
281 -20 12 -197 122 -236 147 -15 10 -36 22 -47 28 -11 6 -40 24 -65 40 -25
16 -62 40 -84 52 -44 26 -39 23 -171 106 -55 35 -109 68 -120 75 -11 7 -46 29
-78 50 -32 20 -60 37 -62 37 -2 0 -60 36 -130 80 -70 44 -128 80 -130 80 -2 0
-39 22 -82 50 -43 27 -87 50 -99 50 -44 0 -75 -70 -54 -124 5 -13 36 -40 72
-62 35 -21 141 -87 236 -146 95 -59 177 -108 183 -108 5 0 9 -4 9 -8 0 -5 19
-18 42 -31 24 -12 88 -51 143 -86 55 -35 147 -92 205 -128 58 -35 141 -86 185
-114 44 -27 186 -115 315 -195 129 -80 319 -198 422 -262 209 -129 253 -147
319 -127 35 11 202 128 261 184 7 7 49 39 92 72 118 90 123 93 236 183 58 45
116 91 130 102 40 31 254 199 265 208 6 4 42 32 80 62 85 66 80 62 134 105 42
35 402 316 466 365 18 14 57 44 87 67 30 23 61 48 69 55 8 8 30 25 49 38 19
14 42 32 51 40 9 8 92 74 184 145 199 154 209 164 243 235 22 46 26 69 26 145
1 83 -2 95 -33 152 -23 43 -48 72 -84 98 -44 31 -341 216 -627 389 -41 25
-111 68 -155 95 -44 27 -127 78 -184 113 -57 34 -120 73 -140 85 -76 47 -96
55 -145 59 -28 2 -64 -2 -81 -8z"/>
<path d="M4576 2458 c-111 -24 -182 -154 -202 -368 -5 -60 -24 -165 -40 -217
-5 -17 -2 -23 10 -23 22 0 18 1 98 -21 40 -11 104 -31 142 -45 38 -13 85 -27
105 -30 20 -3 41 -9 46 -13 11 -8 99 -7 132 2 101 26 176 133 177 253 1 52 -3
66 -28 99 -31 40 -92 73 -145 77 -24 2 -30 6 -26 18 12 29 18 108 11 143 -17
93 -151 153 -280 125z"/>
</g>
</svg>
